Coordinates
version=1
nRows=18
nColumns=34
inDegrees=yes
inDegrees=no

Units are S.I. units (second, meters, Newtons, ...)
If the header above contains a line with 'inDegrees', this indicates whether rotational values are in degrees (yes) or radians (no).

endheader
time	pelvis_tilt	pelvis_list	pelvis_rotation	pelvis_tx	pelvis_ty	pelvis_tz	hip_flexion_r	hip_adduction_r	hip_rotation_r	knee_angle_r	ankle_angle_r	subtalar_angle_r	mtp_angle_r	hip_flexion_l	hip_adduction_l	hip_rotation_l	knee_angle_l	ankle_angle_l	subtalar_angle_l	mtp_angle_l	lumbar_extension	lumbar_bending	lumbar_rotation	arm_flex_r	arm_add_r	arm_rot_r	elbow_flex_r	pro_sup_r	arm_flex_l	arm_add_l	arm_rot_l	elbow_flex_l	pro_sup_l
2.933333 -0.017389 0.092140 -0.043821 -0.009579 0.008037 0.000983 1.668267 0.121055 -0.239693 0.869361 -0.110666 -0.089484 0.000000 1.762679 -0.188867 -0.007592 1.255437 0.872665 -0.610865 0.000000 -0.956368 0.015583 -0.082836 0.701124 -0.054168 0.123203 1.092794 1.776846 2.103336 -0.018529 0.745146 0.676972 0.932936
2.950000 -0.002634 0.087437 -0.056940 -0.009685 0.008013 0.001019 1.651718 0.140292 -0.240929 0.847315 -0.137107 -0.111902 0.000000 1.751698 -0.191933 0.009132 1.243300 0.872665 -0.610865 0.000000 -0.972943 0.007516 -0.102976 0.638343 -0.047925 0.107003 1.141665 1.785468 2.073547 -0.030215 0.732215 0.707626 0.909377
2.966667 0.007514 0.078388 -0.067588 -0.009400 0.007776 0.001000 1.659764 0.154043 -0.253862 0.859537 -0.136351 -0.129164 0.000000 1.765389 -0.193088 0.037278 1.255952 0.872665 -0.610865 0.000000 -0.957962 0.006240 -0.114848 0.537574 -0.054816 0.090252 1.178456 1.800878 1.990431 -0.034057 0.690151 0.771318 0.873497
2.983333 0.006454 0.063899 -0.074489 -0.009175 0.008076 0.000996 1.652828 0.166272 -0.256797 0.861108 -0.142489 -0.152855 0.000000 1.770510 -0.198564 0.054487 1.262451 0.872665 -0.610865 0.000000 -0.941242 0.016074 -0.112615 0.429104 -0.065581 0.049242 1.200935 1.802803 1.892951 -0.034462 0.662340 0.830805 0.865158
3.000000 0.006849 0.050688 -0.078910 -0.009161 0.008027 0.000979 1.653993 0.172234 -0.272899 0.868694 -0.130597 -0.159436 0.000000 1.772036 -0.194614 0.078573 1.270207 0.872665 -0.610865 0.000000 -0.911245 0.032470 -0.122513 0.342854 -0.077002 0.031122 1.178957 1.806237 1.786845 -0.043329 0.634069 0.880891 0.865045
3.016667 0.018629 0.042756 -0.081554 -0.009437 0.008228 0.001074 1.622498 0.181752 -0.269301 0.838722 -0.151711 -0.179223 0.000000 1.747705 -0.192202 0.086895 1.252643 0.872665 -0.610865 0.000000 -0.912299 0.037853 -0.138835 0.296116 -0.083746 0.024151 1.142970 1.806142 1.709021 -0.041995 0.621722 0.893300 0.868301
3.033333 0.045482 0.040115 -0.085061 -0.009561 0.008388 0.001036 1.568845 0.191962 -0.261289 0.793478 -0.156482 -0.169529 0.000000 1.698364 -0.183326 0.093538 1.219279 0.872665 -0.610865 0.000000 -0.927689 0.045183 -0.168063 0.274116 -0.088396 0.029087 1.095817 1.805040 1.637876 -0.046886 0.594520 0.896546 0.870536
3.050000 0.062932 0.035306 -0.094829 -0.009594 0.008204 0.001042 1.547061 0.209002 -0.255867 0.769954 -0.156215 -0.188863 0.000000 1.673096 -0.178316 0.113447 1.193159 0.872665 -0.610865 0.000000 -0.912831 0.049122 -0.194069 0.251676 -0.100974 0.045382 1.031752 1.803609 1.561262 -0.062788 0.583109 0.886775 0.873304
3.066667 0.082453 0.037233 -0.107402 -0.009638 0.008252 0.000976 1.521285 0.224342 -0.236853 0.748624 -0.162071 -0.196980 0.000000 1.655641 -0.171627 0.125923 1.186403 0.872665 -0.610865 0.000000 -0.899536 0.047011 -0.227964 0.234629 -0.124043 0.087133 0.971018 1.799286 1.494164 -0.090420 0.566382 0.883140 0.880040
3.083333 0.110950 0.045881 -0.107981 -0.010178 0.008143 0.001047 1.488268 0.233224 -0.209121 0.715827 -0.175728 -0.203151 0.000000 1.628623 -0.161042 0.119325 1.173207 0.872665 -0.308475 0.000000 -0.907083 0.033433 -0.259446 0.205577 -0.140616 0.105489 0.957896 1.794571 1.455170 -0.102197 0.581594 0.875919 0.887062
3.100000 0.134151 0.052236 -0.114986 -0.010246 0.008134 0.001038 1.465052 0.242485 -0.185518 0.695970 -0.198665 -0.215322 0.000000 1.597347 -0.160490 0.116503 1.139334 0.872665 -0.086751 0.000000 -0.901963 0.019389 -0.282361 0.160247 -0.163378 0.119915 0.937006 1.789426 1.396953 -0.116405 0.600827 0.873446 0.893655
3.116667 0.134287 0.056211 -0.119185 -0.010236 0.008177 0.000968 1.458452 0.247349 -0.171254 0.682095 -0.207884 -0.240487 0.000000 1.593105 -0.150801 0.124844 1.140919 0.872665 0.016055 0.000000 -0.878401 0.015323 -0.298115 0.112602 -0.193171 0.125607 0.911427 1.782238 1.329447 -0.127012 0.613553 0.873010 0.899502
3.133333 0.144400 0.059682 -0.122724 -0.010290 0.008315 0.000915 1.423238 0.251011 -0.156380 0.654131 -0.213960 -0.251340 0.000000 1.566544 -0.142741 0.132053 1.119178 0.872665 0.065127 0.000000 -0.865325 0.013684 -0.317929 0.091896 -0.221227 0.133541 0.909280 1.770702 1.256402 -0.144657 0.614778 0.870058 0.906549
3.150000 0.148423 0.056384 -0.130697 -0.010377 0.008479 0.000904 1.392011 0.263010 -0.144905 0.623164 -0.219685 -0.261296 0.000000 1.543548 -0.139935 0.150929 1.101076 0.872665 0.090652 0.000000 -0.849386 0.019916 -0.334097 0.088365 -0.255314 0.172553 0.895715 1.721412 1.166353 -0.166614 0.569494 0.890570 0.938496
3.166667 0.160773 0.055499 -0.136636 -0.010765 0.008612 0.000881 1.342058 0.269531 -0.134181 0.568297 -0.229640 -0.244335 0.000000 1.503636 -0.138526 0.157463 1.059601 0.872665 0.119648 0.000000 -0.855773 0.022888 -0.337198 0.092065 -0.278860 0.175906 0.898481 1.714427 1.136270 -0.178094 0.570786 0.865083 0.944245
3.183333 0.177909 0.054315 -0.130905 -0.010737 0.008522 0.000804 1.308142 0.262918 -0.129860 0.529045 -0.242617 -0.234718 0.000000 1.479092 -0.123145 0.169734 1.036639 0.845011 0.127247 0.000000 -0.853326 0.029415 -0.344283 0.086385 -0.304417 0.178183 0.904084 1.711384 1.099578 -0.186690 0.572753 0.845223 0.947056
3.200000 0.196572 0.054896 -0.126479 -0.010779 0.008566 0.000771 1.279713 0.257270 -0.115593 0.517403 -0.271775 -0.281604 0.000000 1.452941 -0.109509 0.178149 1.021551 0.779000 0.101254 0.000000 -0.851613 0.036279 -0.345778 0.078028 -0.339055 0.206463 0.924514 1.704012 1.065380 -0.194091 0.569748 0.831330 0.958706
3.216667 0.213474 0.053105 -0.118089 -0.010682 0.008527 0.000698 1.270055 0.249819 -0.116591 0.526466 -0.271654 -0.306952 0.000000 1.441204 -0.096456 0.187787 1.024654 0.740848 0.088712 0.000000 -0.828696 0.045224 -0.347969 0.057419 -0.373191 0.228983 0.926638 1.694288 1.021206 -0.206911 0.560290 0.821735 0.973343
